<svg version="1.1" id="Layer_1" xmlns="http://www.w3.org/2000/svg" x="0" y="0" viewBox="0 0 288.3 74" xml:space="preserve"><style>.st0{fill:#fff}</style><path class="st0" d="M31.8 45.1c0 9.1-5.7 13.7-15.7 13.7-8.6 0-13.8-3.2-13.8-8.1 0-2.6 1.5-4.2 3.8-4.2 2.1 0 2.9 1.2 4.7 2 1.4.6 2.9.9 4.4.8 3.4 0 4.5-.9 4.5-2 0-1.3-1-1.7-2.3-1.9-2.2-.4-6.5-.3-10.1-2.4s-4.6-6.1-4.6-9.9c0-10.4 7.7-13.5 15.4-13.5s12.2 3.3 12.2 7.7c0 2.4-1.5 4.1-3.8 4.1-1.5 0-2.6-.8-4.1-1.4-1.2-.5-2.4-.8-3.7-.8-4 0-4.9 1.1-4.9 2.3 0 1.1.6 1.5 2 1.7 2.7.5 8 .6 11.2 2.5 4 2.3 4.8 5.5 4.8 9.4zM35.9 51.5V27.2c0-4.5 2.4-7.2 6.3-7.2 4.3 0 6.3 2.9 6.6 7.9l.1 1.4c1.7-5.4 5.2-9.7 11.8-9.7 6.8 0 11 4.4 11 13.8v18.1c0 4.3-2.5 7.1-6.6 7.1s-6.6-2.8-6.6-7.1V35.9c0-4.1-1.4-6-4.2-6-3.1 0-5 2.9-5 8.5v13.1c0 4.3-2.5 7.1-6.6 7.1s-6.8-2.8-6.8-7.1zM74.9 48.6c0-7.9 5.9-9.3 12.8-11.1 4.3-1.1 6.5-1.7 6.5-3.3V34c0-2.1-2.2-3-4.8-3-1.6-.1-3.1.2-4.5.8-1.7.8-2.9 2-5 2-2.5 0-3.8-1.6-3.8-4.1 0-5.7 6.8-10.2 15.9-10.2 11.3 0 15.6 6.1 15.6 16.6v15.1c0 4.5-2.4 7.2-6.3 7.2-3.6 0-6.3-2.6-6.3-6.7v-.3c-1.9 4.6-5.5 7.1-10.3 7.1-5.8.2-9.8-4-9.8-9.9zM94.3 45v-4.4c-.9.8-1.9 1.5-2.9 2.1-1.8.7-3 2.5-3 4.5v.4c0 2.3 1 3.5 2.7 3.5 2 0 3.2-2.1 3.2-6.1zM110.9 37.8c0-11.3 5.8-18.1 14.3-18.1 6.1 0 9.9 2.8 11.2 8v-.5c0-4.6 2.5-7.2 6.3-7.2 3.5 0 5.7 2.8 5.7 7.2v21.4c0 13.4-6 20.9-20.5 20.9-10.2 0-15.9-3.9-15.9-8.8 0-2.7 1.7-4.2 3.9-4.2 1.7 0 2.9.8 4.7 1.5 1.6.6 3.3.9 5 .8 7.3 0 9.4-4.2 9.4-8.9v-1.5c-1 2.7-4 6.2-10.3 6.2-9 0-13.8-6.3-13.8-16.8zm24.1.6v-.9c0-5.6-2-8.2-5.4-8.2-3.4 0-5.4 2.6-5.4 8.2v.9c0 5.6 2 8.2 5.4 8.2 3.4.1 5.4-2.6 5.4-8.2zM151.7 48.6c0-7.9 5.9-9.3 12.9-11.1 4.2-1.1 6.5-1.7 6.5-3.3V34c0-2.1-2.2-3-4.8-3-1.6-.1-3.1.2-4.5.8-1.7.8-2.9 2-5 2-2.5 0-3.8-1.6-3.8-4.1 0-5.7 6.8-10.2 15.9-10.2 11.3 0 15.6 6.1 15.6 16.6v15.1c0 4.5-2.4 7.2-6.3 7.2-3.6 0-6.3-2.6-6.3-6.7v-.3c-1.9 4.6-5.5 7.1-10.3 7.1-5.9.2-9.9-4-9.9-9.9zm19.4-3.6v-4.4c-.9.8-1.9 1.5-2.9 2.1-1.8.7-3 2.5-3 4.5v.4c0 2.3 1.1 3.5 2.7 3.5 2 0 3.2-2.1 3.2-6.1zM206.6 38.8v-.2c0-12.4 8.1-19 18.4-19s18.5 6.6 18.5 18.9v.2c0 14.6-9.2 20-18.5 20s-18.4-5.3-18.4-19.9zm23.5 1.2v-2.6c0-6-2.2-8.5-5.1-8.5s-5 2.5-5 8.5V40c0 8.2 2.3 9.8 5 9.8s5.1-1.6 5.1-9.8zM260 50.4v.9c0 4.5-2.5 7.2-6.3 7.2s-6.4-2.8-6.4-7.2V13.2c0-4.3 2.5-7.1 6.6-7.1s6.6 2.8 6.6 7.1V28c.9-3.3 4.1-8.4 10.3-8.4 9.1 0 13.9 7.9 13.9 18.9v.1c0 12.8-5.8 20.2-14.3 20.2-6-.1-9-3.9-10.4-8.4zm11.5-10.8v-2.2c0-4.8-2-7.8-5.5-7.8-3.4 0-5.3 3.2-5.3 8.5v1.4c0 6.5 2 9.8 5.3 9.8s5.5-3.6 5.5-9.7zM189 10.5c0-4.1 2.9-7.4 6.8-7.4s6.9 3.3 6.9 7.4-2.9 7.3-6.9 7.3-6.8-3.2-6.8-7.3z"/><path class="st0" d="M181.2 63.9c0-2.6 1.6-4.2 3.9-4.2 1.2.1 2.3-.2 3.3-.9.6-.8.9-1.7.8-2.7V27c0-4.4 2.5-7.1 6.6-7.1s6.6 2.7 6.6 7.1v28.2c0 9.7-4.1 14.2-12.2 14.2-4.7 0-9-1.3-9-5.5zM283 58.7c-1.1 0-2-1-2-2.1s.9-2.1 2-2.2c1.1 0 2 1 2 2.1.1 1.1-.8 2.1-1.9 2.1 0 .1 0 .1-.1.1zm0-.3c.9 0 1.7-.8 1.7-1.7v-.1c.1-.9-.6-1.8-1.6-1.8h-.1c-1 0-1.7.8-1.7 1.8v.1c0 .8.7 1.6 1.7 1.7zm.5-.9l-.8-.9v.8c0 .1 0 .2-.2.2-.1 0-.2-.1-.2-.2v-1.7c0-.2.1-.3.3-.4h.5c.4 0 .7.2.7.6v.1c0 .3-.2.6-.6.6h-.1l.6.7c.1.1 0 .3-.1.3s-.1 0-.1-.1zm-.5-1.1c.3 0 .4-.1.4-.4s-.1-.4-.4-.4h-.4v.8h.4z"/></svg>